<svg width="46" height="46" viewBox="0 0 46 46" fill="none" xmlns="http://www.w3.org/2000/svg">
<g id="Frame">
<g id="Group">
<path id="Vector" d="M28.9552 36.2307C28.2867 36.2307 27.7066 35.7337 27.6199 35.0532C27.5262 34.3148 28.0484 33.6402 28.7864 33.5462C33.0449 33.0036 36.8583 31.8497 39.5242 30.2964C41.9622 28.8761 43.3046 27.2062 43.3046 25.5947C43.3046 23.8185 41.7338 22.3652 40.4156 21.4583C39.8025 21.0365 39.6473 20.1978 40.0692 19.5843C40.4911 18.9712 41.3301 18.8161 41.9433 19.2379C44.5972 21.0635 45.9999 23.2616 45.9999 25.5951C45.9999 28.2433 44.23 30.6744 40.8813 32.6253C37.867 34.3814 33.8026 35.6245 29.1272 36.2201C29.0693 36.2271 29.0117 36.2307 28.9552 36.2307ZM22.6715 34.3L19.0777 30.7063C18.5513 30.1798 17.6981 30.1798 17.1717 30.7063C16.6456 31.2324 16.6456 32.0859 17.1717 32.6119L18.2217 33.662C14.1956 33.2461 10.538 32.3087 7.70588 30.9467C4.52165 29.4155 2.69531 27.4645 2.69531 25.5947C2.69531 24.0087 4.00298 22.3603 6.3771 20.953C7.01768 20.5736 7.22881 19.7468 6.84949 19.1067C6.46982 18.4662 5.6429 18.2549 5.00285 18.6343C0.867889 21.0853 0 23.7722 0 25.5947C0 28.5848 2.32192 31.3482 6.53792 33.3761C9.81011 34.9492 14.043 36.0032 18.6545 36.411L17.1717 37.8938C16.6456 38.4199 16.6456 39.2734 17.1717 39.7998C17.2968 39.925 17.4454 40.0243 17.609 40.092C17.7726 40.1597 17.9479 40.1944 18.125 40.1942C18.4695 40.1942 18.8145 40.0627 19.0777 39.7998L22.6715 36.2061C23.1975 35.6796 23.1975 34.8261 22.6715 34.3Z" fill="#FF6A2B"/>
<path id="Vector_2" d="M14.1094 22.896V22.5717C14.1094 21.428 13.4093 21.2061 12.4704 21.2061C11.89 21.2061 11.7023 20.694 11.7023 20.1821C11.7023 19.6697 11.89 19.1576 12.4704 19.1576C13.1191 19.1576 13.8019 19.0724 13.8019 17.6896C13.8019 16.6995 13.2387 16.4605 12.5385 16.4605C11.7023 16.4605 11.2755 16.6655 11.2755 17.3313C11.2755 17.9114 11.0193 18.3041 10.0293 18.3041C8.80022 18.3041 8.64686 18.048 8.64686 17.2285C8.64686 15.8973 9.60253 14.1731 12.5385 14.1731C14.7067 14.1731 16.3453 14.9581 16.3453 17.2628C16.3453 18.5088 15.8845 19.6697 15.031 20.0623C16.0382 20.4379 16.7721 21.189 16.7721 22.5717V22.896C16.7721 25.6955 14.8432 26.754 12.4534 26.754C9.51727 26.754 8.39062 24.9616 8.39062 23.5277C8.39062 22.7595 8.71496 22.5545 9.65374 22.5545C10.7462 22.5545 11.0194 22.7935 11.0194 23.4424C11.0194 24.2447 11.7706 24.4325 12.5386 24.4325C13.6995 24.4325 14.1094 24.0058 14.1094 22.896ZM27.1339 22.5717V22.7254C27.1339 25.6615 25.3072 26.754 22.9517 26.754C20.5962 26.754 18.7521 25.6615 18.7521 22.7254V18.2017C18.7521 15.2656 20.6469 14.1731 23.1054 14.1731C25.9902 14.1731 27.134 15.9654 27.134 17.3822C27.134 18.2016 26.7412 18.4575 25.8877 18.4575C25.1539 18.4575 24.505 18.2697 24.505 17.4846C24.505 16.8361 23.8224 16.4946 23.0201 16.4946C22.0129 16.4946 21.4152 17.0238 21.4152 18.2016V19.7377C21.9616 19.1405 22.7299 18.9866 23.5493 18.9866C25.495 18.9866 27.1339 19.8402 27.1339 22.5717ZM21.4152 22.9132C21.4152 24.091 21.9957 24.603 22.9517 24.603C23.9077 24.603 24.4709 24.0909 24.4709 22.9132V22.7595C24.4709 21.5132 23.9076 21.0353 22.9344 21.0353C22.0128 21.0353 21.4152 21.4792 21.4152 22.6057V22.9132ZM29.1993 22.7254V18.2017C29.1993 15.2656 31.0257 14.1731 33.3816 14.1731C35.7373 14.1731 37.5808 15.2656 37.5808 18.2017V22.7254C37.5808 25.6615 35.7372 26.754 33.3816 26.754C31.0257 26.754 29.1993 25.6615 29.1993 22.7254ZM34.9177 18.2017C34.9177 17.0238 34.3376 16.4946 33.3816 16.4946C32.4255 16.4946 31.8623 17.0238 31.8623 18.2017V22.7254C31.8623 23.9032 32.4256 24.4324 33.3816 24.4324C34.3375 24.4324 34.9177 23.9032 34.9177 22.7254V18.2017ZM40.8159 14.1611C38.5862 14.1611 36.7729 12.3474 36.7729 10.1182C36.7729 7.88896 38.5862 6.0752 40.8159 6.0752C43.0451 6.0752 44.8588 7.88896 44.8588 10.1182C44.8588 12.3474 43.0451 14.1611 40.8159 14.1611ZM40.8159 8.77051C40.0725 8.77051 39.4682 9.37516 39.4682 10.1182C39.4682 10.8614 40.0725 11.4658 40.8159 11.4658C41.5589 11.4658 42.1635 10.8614 42.1635 10.1182C42.1635 9.37516 41.5589 8.77051 40.8159 8.77051Z" fill="#FF6A2B"/>
</g>
</g>
</svg>
