<svg width="73" height="18" viewBox="0 0 73 18" fill="none" xmlns="http://www.w3.org/2000/svg">
<path d="M8.55959 14H4.23959V3.32H0.375594V0.319999H12.4236V3.32H8.55959V14ZM13.6855 0.319999H23.6455V3.2H18.0055V5.696H22.7575V8.288H18.0055V11.072H23.6215V14H13.6855V0.319999ZM27.7093 6.992L24.4933 0.319999H28.9093L31.1173 5.696L33.3973 0.319999H37.6933L34.5253 6.992L37.9093 14.024H33.4933L31.1173 8.216L28.6693 14.024H24.2293L27.7093 6.992Z" fill="black"/>
<path d="M56.7111 14H52.6791L52.3671 6.464C52.3191 4.976 52.2631 3.848 52.1991 3.08H52.1271C51.9351 3.688 51.7111 4.632 51.4551 5.912L51.3351 6.512L49.6791 14H45.6471L44.2551 7.256L44.0151 6.056C43.6791 4.568 43.4471 3.576 43.3191 3.08H43.2471C43.1831 3.88 43.1271 5.184 43.0791 6.992C43.0631 7.104 43.0551 7.28 43.0551 7.52L42.8391 14H38.7831L39.3591 0.319999H46.2231L47.3991 6.224L47.6871 7.808C47.8151 7.312 47.9351 6.76 48.0471 6.152L49.1511 0.319999H56.1591L56.7111 14ZM65.2665 14.312C62.8825 14.312 61.0905 13.752 59.8905 12.632C58.7065 11.496 58.1145 9.68 58.1145 7.184C58.1145 4.736 58.7705 2.952 60.0825 1.832C61.3945 0.711999 63.1305 0.151999 65.2905 0.151999C69.8345 0.151999 72.1065 2.416 72.1065 6.944C72.1065 9.232 71.5465 11.032 70.4265 12.344C69.3225 13.656 67.6025 14.312 65.2665 14.312ZM65.1705 11.48C65.6185 11.48 65.9945 11.408 66.2985 11.264C66.6025 11.104 66.8425 10.832 67.0185 10.448C67.3545 9.792 67.5225 8.72 67.5225 7.232C67.5225 5.776 67.3545 4.72 67.0185 4.064C66.6825 3.392 66.0665 3.04 65.1705 3.008C64.8345 3.008 64.4825 3.048 64.1145 3.128C63.7625 3.192 63.5385 3.288 63.4425 3.416C63.2505 3.64 63.0985 4.12 62.9865 4.856C62.8905 5.576 62.8425 6.368 62.8425 7.232C62.8425 8.576 62.9705 9.56 63.2265 10.184C63.4025 10.648 63.6505 10.984 63.9705 11.192C64.2905 11.384 64.6905 11.48 65.1705 11.48Z" fill="#FF6A2A"/>
<path d="M37.8711 16.4H72.8265V17.6H37.8711V16.4Z" fill="#FF6A2A"/>
</svg>
