<svg width="67" height="102" viewBox="0 0 67 102" fill="none" xmlns="http://www.w3.org/2000/svg">
<g id="Arrow 9" filter="url(#filter0_dddd_2237_89)">
<path d="M52.9798 2.79983C52.8692 2.25873 52.3409 1.90969 51.7998 2.02024L42.982 3.82174C42.4409 3.93228 42.0918 4.46056 42.2024 5.00166C42.3129 5.54277 42.8412 5.89181 43.3823 5.78126L51.2204 4.17993L52.8217 12.018C52.9323 12.5591 53.4606 12.9082 54.0017 12.7976C54.5428 12.6871 54.8918 12.1588 54.7813 11.6177L52.9798 2.79983ZM14.0202 59.2002C14.1308 59.7413 14.6591 60.0903 15.2002 59.9798L24.018 58.1783C24.5591 58.0677 24.9082 57.5394 24.7976 56.9983C24.6871 56.4572 24.1588 56.1082 23.6177 56.2187L15.7796 57.8201L14.1783 49.982C14.0677 49.4409 13.5394 49.0918 12.9983 49.2024C12.4572 49.3129 12.1082 49.8412 12.2187 50.3823L14.0202 59.2002ZM51.1657 2.44874L14.1657 58.4487L15.8343 59.5513L52.8343 3.55126L51.1657 2.44874Z" fill="url(#paint0_linear_2237_89)"/>
</g>
<defs>
<filter id="filter0_dddd_2237_89" x="0.195312" y="-0.000183105" width="66.6094" height="102" filterUnits="userSpaceOnUse" color-interpolation-filters="sRGB">
<feFlood flood-opacity="0" result="BackgroundImageFix"/>
<feColorMatrix in="SourceAlpha" type="matrix" values="0 0 0 0 0 0 0 0 0 0 0 0 0 0 0 0 0 0 127 0" result="hardAlpha"/>
<feOffset dy="2"/>
<feGaussianBlur stdDeviation="2"/>
<feColorMatrix type="matrix" values="0 0 0 0 0 0 0 0 0 0 0 0 0 0 0 0 0 0 0.1 0"/>
<feBlend mode="normal" in2="BackgroundImageFix" result="effect1_dropShadow_2237_89"/>
<feColorMatrix in="SourceAlpha" type="matrix" values="0 0 0 0 0 0 0 0 0 0 0 0 0 0 0 0 0 0 127 0" result="hardAlpha"/>
<feOffset dy="7"/>
<feGaussianBlur stdDeviation="3.5"/>
<feColorMatrix type="matrix" values="0 0 0 0 0 0 0 0 0 0 0 0 0 0 0 0 0 0 0.09 0"/>
<feBlend mode="normal" in2="effect1_dropShadow_2237_89" result="effect2_dropShadow_2237_89"/>
<feColorMatrix in="SourceAlpha" type="matrix" values="0 0 0 0 0 0 0 0 0 0 0 0 0 0 0 0 0 0 127 0" result="hardAlpha"/>
<feOffset dy="17"/>
<feGaussianBlur stdDeviation="5"/>
<feColorMatrix type="matrix" values="0 0 0 0 0 0 0 0 0 0 0 0 0 0 0 0 0 0 0.05 0"/>
<feBlend mode="normal" in2="effect2_dropShadow_2237_89" result="effect3_dropShadow_2237_89"/>
<feColorMatrix in="SourceAlpha" type="matrix" values="0 0 0 0 0 0 0 0 0 0 0 0 0 0 0 0 0 0 127 0" result="hardAlpha"/>
<feOffset dy="30"/>
<feGaussianBlur stdDeviation="6"/>
<feColorMatrix type="matrix" values="0 0 0 0 0 0 0 0 0 0 0 0 0 0 0 0 0 0 0.01 0"/>
<feBlend mode="normal" in2="effect3_dropShadow_2237_89" result="effect4_dropShadow_2237_89"/>
<feBlend mode="normal" in="SourceGraphic" in2="effect4_dropShadow_2237_89" result="shape"/>
</filter>
<linearGradient id="paint0_linear_2237_89" x1="49.5" y1="7.00003" x2="32.6657" y2="30.4488" gradientUnits="userSpaceOnUse">
<stop stop-color="#FF6A2B"/>
<stop offset="1" stop-color="#FF4C00"/>
</linearGradient>
</defs>
</svg>
