<svg width="19" height="9" viewBox="0 0 19 9" fill="none" xmlns="http://www.w3.org/2000/svg">
<g id="45&#208;&#186;&#208;&#179;">
<path d="M3.41433 8.72721L3.11652 7.33087L0.523336 7.88396L0.301364 6.84321L2.46526 2.49179L3.26316 2.32161L4.05486 6.03359L4.81807 5.87081L5.04189 6.92023L4.27868 7.08301L4.5765 8.47934L3.41433 8.72721ZM1.47035 6.58482L3.02279 6.25371L2.60474 4.29365L1.47035 6.58482Z" fill="#FF6A2B"/>
<path d="M8.0289 7.83367C7.5837 7.92863 7.16151 7.91893 6.76233 7.80459C6.36771 7.68322 6.03985 7.47811 5.77876 7.18923L6.29858 6.35297C6.51435 6.5427 6.75495 6.67878 7.02037 6.76121C7.29157 6.8424 7.55727 6.85524 7.81745 6.79975C8.0256 6.75536 8.20137 6.67253 8.34477 6.55127C8.48816 6.43002 8.58658 6.28208 8.64001 6.10747C8.69923 5.93163 8.70725 5.74253 8.66409 5.54016C8.62216 5.34358 8.5418 5.17937 8.42301 5.04754C8.30299 4.90992 8.15918 4.81667 7.99158 4.76779C7.82276 4.71312 7.64294 4.70614 7.45214 4.74683C7.26712 4.78629 7.10002 4.86727 6.95084 4.98976C6.80043 5.10647 6.69273 5.25336 6.62773 5.43044L5.61301 5.64686L5.54358 1.83523L8.57908 1.18781L8.80475 2.2459L6.61052 2.7139L6.66179 4.14467C6.71514 4.05471 6.80338 3.97242 6.9265 3.8978C7.04838 3.8174 7.20762 3.75624 7.4042 3.71431C7.79159 3.63169 8.157 3.64442 8.50044 3.75252C8.84264 3.85484 9.13192 4.03494 9.36826 4.29282C9.6104 4.54947 9.77277 4.87149 9.8554 5.25887C9.94295 5.66939 9.91946 6.05523 9.78492 6.41639C9.65492 6.77055 9.43848 7.07362 9.13557 7.32562C8.83722 7.5706 8.46833 7.73995 8.0289 7.83367Z" fill="#FF6A2B"/>
<path d="M11.1442 7.07855L10.1749 2.53398L11.3371 2.28611L11.7034 4.00333L12.0936 3.92009L12.9589 1.9402L14.2252 1.67013L13.08 4.20842L15.3679 6.17772L14.041 6.46073L12.2946 4.94719L11.9216 5.02673L12.3064 6.83069L11.1442 7.07855Z" fill="#FF6A2B"/>
<path d="M16.0905 6.02361L15.1212 1.47903L18.1307 0.83716L18.3471 1.85188L16.4998 2.24589L17.2526 5.77574L16.0905 6.02361Z" fill="#FF6A2B"/>
</g>
</svg>
