<svg width="27" height="27" viewBox="0 0 27 27" fill="none" xmlns="http://www.w3.org/2000/svg">
<path d="M21.778 10.125V7.46999C21.778 6.87325 21.541 6.30095 21.119 5.879C20.6971 5.45704 20.1248 5.21999 19.528 5.21999H16.9293L15.0843 3.37499C14.6627 2.95592 14.0925 2.7207 13.498 2.7207C12.9036 2.7207 12.3333 2.95592 11.9118 3.37499L10.123 5.21999H7.46803C6.8713 5.21999 6.299 5.45704 5.87704 5.879C5.45509 6.30095 5.21803 6.87325 5.21803 7.46999V10.125L3.37303 11.9137C2.95397 12.3353 2.71875 12.9056 2.71875 13.5C2.71875 14.0944 2.95397 14.6647 3.37303 15.0862L5.21803 16.9312V19.53C5.21803 20.1267 5.45509 20.699 5.87704 21.121C6.299 21.5429 6.8713 21.78 7.46803 21.78H10.123L11.9118 23.625C12.3333 24.0441 12.9036 24.2793 13.498 24.2793C14.0925 24.2793 14.6627 24.0441 15.0843 23.625L16.9293 21.78H19.528C20.1248 21.78 20.6971 21.5429 21.119 21.121C21.541 20.699 21.778 20.1267 21.778 19.53V16.9312L23.623 15.0862C24.0421 14.6647 24.2773 14.0944 24.2773 13.5C24.2773 12.9056 24.0421 12.3353 23.623 11.9137L21.778 10.125Z" fill="#3391FF"/>
<path d="M12.6512 16.3123C12.5031 16.3131 12.3563 16.2847 12.2193 16.2287C12.0822 16.1728 11.9575 16.0903 11.8524 15.986L10.1199 14.2985C9.90807 14.0867 9.78906 13.7993 9.78906 13.4998C9.78906 13.2002 9.90807 12.9128 10.1199 12.701C10.3318 12.4892 10.6191 12.3701 10.9187 12.3701C11.2183 12.3701 11.5056 12.4892 11.7174 12.701L12.6062 13.601L15.1824 11.0135C15.3943 10.7897 15.6863 10.6593 15.9943 10.6508C16.3024 10.6424 16.6011 10.7567 16.8249 10.9685C17.0487 11.1803 17.1791 11.4724 17.1876 11.7804C17.196 12.0885 17.0818 12.3872 16.8699 12.611L13.4949 15.986C13.3845 16.0958 13.2525 16.1815 13.1073 16.2377C12.962 16.2938 12.8067 16.3192 12.6512 16.3123Z" fill="white"/>
</svg>
