<svg width="101" height="17" viewBox="0 0 101 17" fill="none" xmlns="http://www.w3.org/2000/svg">
<path d="M71.6594 0.325195L73.4947 5.97396H79.4342L74.6291 9.4651L76.4645 15.1139L71.6594 11.6227L66.8542 15.1139L68.6896 9.4651L63.8845 5.97396H69.824L71.6594 0.325195Z" fill="#FEC526"/>
<path d="M29.339 0.325195L31.1744 5.97396H37.1139L32.3088 9.4651L34.1442 15.1139L29.339 11.6227L24.5339 15.1139L26.3693 9.4651L21.5642 5.97396H27.5036L29.339 0.325195Z" fill="#FEC526"/>
<path d="M8.17498 0.325195L10.0104 5.97396H15.9498L11.1447 9.4651L12.9801 15.1139L8.17498 11.6227L3.36985 15.1139L5.20524 9.4651L0.400112 5.97396H6.33958L8.17498 0.325195Z" fill="#FEC526"/>
<path d="M50.5031 0.325195L52.3385 5.97396H58.278L53.4728 9.4651L55.3082 15.1139L50.5031 11.6227L45.698 15.1139L47.5334 9.4651L42.7282 5.97396H48.6677L50.5031 0.325195Z" fill="#FEC526"/>
<path d="M92.8234 0.325195L94.6588 5.97396H100.598L95.7931 9.4651L97.6285 15.1139L92.8234 11.6227L88.0183 15.1139L89.8537 9.4651L85.0485 5.97396H90.988L92.8234 0.325195Z" fill="#FEC526"/>
</svg>
